<svg width="35" height="35" viewBox="0 0 35 35" fill="none" xmlns="http://www.w3.org/2000/svg">
<path d="M31.8236 10.8369C31.6895 10.643 31.5103 10.4846 31.3015 10.3751C31.0928 10.2656 30.8606 10.2084 30.6248 10.2083H10.6938L9.01088 6.16876C8.79022 5.63679 8.41656 5.18232 7.93729 4.86298C7.45802 4.54364 6.89471 4.3738 6.3188 4.37501H2.9165V7.29167H6.3188L13.2371 23.8948C13.3479 24.1604 13.5349 24.3874 13.7744 24.547C14.0139 24.7065 14.2953 24.7917 14.5832 24.7917H26.2498C26.858 24.7917 27.4019 24.414 27.6163 23.8467L31.9913 12.18C32.074 11.9592 32.1019 11.7217 32.0727 11.4878C32.0435 11.2539 31.958 11.0305 31.8236 10.8369ZM25.2392 21.875H15.5559L11.91 13.125H28.5205L25.2392 21.875Z" fill="black"/>
<path d="M15.3125 30.625C16.5206 30.625 17.5 29.6456 17.5 28.4375C17.5 27.2294 16.5206 26.25 15.3125 26.25C14.1044 26.25 13.125 27.2294 13.125 28.4375C13.125 29.6456 14.1044 30.625 15.3125 30.625Z" fill="black"/>
<path d="M25.521 30.625C26.7291 30.625 27.7085 29.6456 27.7085 28.4375C27.7085 27.2294 26.7291 26.25 25.521 26.25C24.3129 26.25 23.3335 27.2294 23.3335 28.4375C23.3335 29.6456 24.3129 30.625 25.521 30.625Z" fill="black"/>
</svg>
