<svg width="35" height="35" viewBox="0 0 35 35" fill="none" xmlns="http://www.w3.org/2000/svg">
<path d="M17.4998 17.4999C18.3053 17.4999 18.9582 16.847 18.9582 16.0416C18.9582 15.2362 18.3053 14.5833 17.4998 14.5833C16.6944 14.5833 16.0415 15.2362 16.0415 16.0416C16.0415 16.847 16.6944 17.4999 17.4998 17.4999Z" fill="black"/>
<path d="M23.3333 17.4999C24.1387 17.4999 24.7917 16.847 24.7917 16.0416C24.7917 15.2362 24.1387 14.5833 23.3333 14.5833C22.5279 14.5833 21.875 15.2362 21.875 16.0416C21.875 16.847 22.5279 17.4999 23.3333 17.4999Z" fill="black"/>
<path d="M11.6668 17.4999C12.4722 17.4999 13.1252 16.847 13.1252 16.0416C13.1252 15.2362 12.4722 14.5833 11.6668 14.5833C10.8614 14.5833 10.2085 15.2362 10.2085 16.0416C10.2085 16.847 10.8614 17.4999 11.6668 17.4999Z" fill="black"/>
<path d="M27.7082 4.375H7.2915C6.13118 4.375 5.01838 4.83594 4.19791 5.65641C3.37744 6.47688 2.9165 7.58968 2.9165 8.75V30.625C2.91695 30.8834 2.98605 31.1371 3.11673 31.36C3.24742 31.5829 3.43499 31.7671 3.66025 31.8938C3.87821 32.0173 4.12431 32.0826 4.37484 32.0833C4.63658 32.0833 4.89349 32.0127 5.11859 31.8792L11.6665 27.9125C11.9085 27.7684 12.1871 27.6975 12.4686 27.7083H27.7082C28.8685 27.7083 29.9813 27.2474 30.8018 26.4269C31.6222 25.6065 32.0832 24.4937 32.0832 23.3333V8.75C32.0832 7.58968 31.6222 6.47688 30.8018 5.65641C29.9813 4.83594 28.8685 4.375 27.7082 4.375ZM29.1665 23.3333C29.1665 23.7201 29.0129 24.091 28.7394 24.3645C28.4659 24.638 28.0949 24.7917 27.7082 24.7917H12.4686C11.6721 24.791 10.8905 25.0079 10.2082 25.4188L5.83317 28.0438V8.75C5.83317 8.36323 5.98682 7.99229 6.26031 7.7188C6.5338 7.44531 6.90473 7.29167 7.2915 7.29167H27.7082C28.0949 7.29167 28.4659 7.44531 28.7394 7.7188C29.0129 7.99229 29.1665 8.36323 29.1665 8.75V23.3333Z" fill="black"/>
</svg>
